<svg width="1024" height="1024" viewBox="0 0 1024 1024" fill="none" xmlns="http://www.w3.org/2000/svg">
<rect width="1024" height="1024" fill="#FEF0D5" style="fill:#FEF0D5;fill:color(display-p3 0.9961 0.9412 0.8353);fill-opacity:1;"/>
<path d="M354.269 644.33C204.093 491.748 291.396 281.745 404.367 207.763C422.191 167.815 445.181 129.398 505.359 102C511.346 102.87 517.676 103.457 514.901 111.542C497.46 162.866 500.471 175.896 499.792 195.834C519.604 173.03 538.634 149.714 568.975 133.808C578.014 132.487 579.972 135.524 579.313 140.17C573.128 159.805 567.274 181.352 564.999 223.667C590.416 269.58 626.79 294.382 673.943 298.415C681.254 299.679 686.227 302.328 683.485 309.548C665.095 347.488 630.943 353.567 595.217 356.466C423.805 399.251 368.222 505.346 366.993 641.15C363.236 645.648 358.963 646.484 354.269 644.33Z" fill="#F95331" style="fill:#F95331;fill:color(display-p3 0.9765 0.3255 0.1922);fill-opacity:1;"/>
<path d="M421.677 614.815C413.529 616.613 408.344 613.967 406.942 605.646C410.84 518.404 467.065 459.334 525.333 425.149C560.619 404.447 590.764 400.515 628.616 397.021C692.364 407.007 740.283 448.089 749.1 524.179C751.117 541.582 747.358 553.89 745.511 575.943C728.004 651.229 677.011 686.885 634.182 731.008C553.341 790.913 526.772 850.819 540.348 910.725C540.799 917.802 536.914 922.93 529.215 921.857C426.598 871.73 397.296 797.348 415.5 707.947C427.713 669.263 456.402 628.031 508.838 579.819C511.944 575.102 514.647 570.471 506.85 568.09C480.712 564.835 452.266 587.659 421.677 614.815Z" fill="#F95331" style="fill:#F95331;fill:color(display-p3 0.9765 0.3255 0.1922);fill-opacity:1;"/>
<path d="M556 279C549.514 290.076 498.236 284.501 498.5 267.5C498.877 243.276 562.486 267.924 556 279Z" fill="#FEF0D5" style="fill:#FEF0D5;fill:color(display-p3 0.9961 0.9412 0.8353);fill-opacity:1;"/>
<path d="M599.5 708C521.1 766.4 497.5 831 495.5 856C402.3 770 455 688.167 493 658C485.8 686.4 490 717.833 493 730C525.4 705.2 577.5 705 599.5 708Z" fill="#FEF0D5" style="fill:#FEF0D5;fill:color(display-p3 0.9961 0.9412 0.8353);fill-opacity:1;"/>
</svg>
